<svg width="40" height="40" viewBox="0 0 40 40" fill="none" xmlns="http://www.w3.org/2000/svg">
<circle cx="20" cy="20" r="20" fill="#F6F7FA"/>
<path fill-rule="evenodd" clip-rule="evenodd" d="M25.4024 18.1754L25.402 18.1763C26.3406 19.3017 26.9015 20.7271 26.9015 22.2775C26.9015 23.8509 26.3238 25.2956 25.3598 26.4286L25.2768 26.5262L25.2548 26.4022C25.2361 26.2968 25.2141 26.1903 25.1886 26.083C24.7062 24.0562 23.1345 22.3182 20.5476 20.911C18.8007 19.9633 17.8008 18.8222 17.5383 17.5257C17.3687 16.6873 17.4948 15.8452 17.7384 15.1239C17.9819 14.4028 18.3442 13.7987 18.6519 13.435L18.6521 13.4348L19.6584 12.2581C19.8349 12.0518 20.1652 12.0518 20.3417 12.2581L25.4024 18.1754ZM26.994 16.9998L26.9942 16.9994L20.2493 9.11293C20.1206 8.96236 19.8795 8.96236 19.7507 9.11293L13.0057 16.9994L13.0059 16.9999L12.984 17.0259C11.7428 18.4987 11 20.3704 11 22.4079C11 27.1531 15.0294 31 20 31C24.9707 31 29 27.1531 29 22.4079C29 20.3704 28.2572 18.4987 27.016 17.0259L26.994 16.9998ZM14.6196 18.15L14.6199 18.1496L15.2231 17.4442L15.2414 17.5745C15.2558 17.6776 15.2733 17.7813 15.2941 17.8854C15.6845 19.8439 17.0789 21.477 19.4103 22.7417C21.4368 23.8447 22.6167 25.1129 22.9567 26.5039C23.0986 27.0844 23.1239 27.6555 23.0624 28.1549L23.0586 28.1857L23.0294 28.1994C22.1147 28.6267 21.0865 28.8665 19.9998 28.8665C16.1882 28.8665 13.0981 25.9166 13.0981 22.2775C13.0981 20.715 13.6678 19.2794 14.6196 18.15Z" fill="#C1C6D4"/>
</svg>
